<?xml version="1.0" encoding="UTF-8"?>
<svg width="172px" height="57px" viewBox="0 0 172 57" version="1.1" xmlns="http://www.w3.org/2000/svg" xmlns:xlink="http://www.w3.org/1999/xlink">
    <!-- Generator: Sketch 55.2 (78181) - https://sketchapp.com -->
    <title>Logo / 2</title>
    <desc>Created with Sketch.</desc>
    <defs>
        <polygon id="path-1" points="0.387942857 0.116072727 53.6370857 0.116072727 53.6370857 55.7045455 0.387942857 55.7045455"></polygon>
        <polygon id="path-3" points="0.931833333 1.1223 9.6685 1.1223 9.6685 2.25 0.931833333 2.25"></polygon>
        <polygon id="path-5" points="0 0.116341085 55.8871318 0.116341085 55.8871318 55.9963535 0 55.9963535"></polygon>
    </defs>
    <g id="Logo-/-2" stroke="none" stroke-width="1" fill="none" fill-rule="evenodd">
        <g transform="translate(-100.000000, -157.000000)"></g>
        <g id="Group-12">
            <path d="M116,36.2741905 L116,0 L149.586426,0 C154.18783,0 157.899932,0.351500839 160.592206,1.28593624 C168.263534,3.94655397 172,10.7851594 172,21.5111553 L172,56 L159.36354,56 L159.36354,19.7675719 C159.36354,16.6232055 158.404624,14.3436704 156.504195,12.9794295 C155.618373,12.3425517 153.905898,11.9632092 151.443346,11.9632092 L128.860961,11.9632092 L128.860961,56 L116,56 L116,46.2919645" id="Fill-1" fill="#EC1C25" fill-rule="nonzero"></path>
            <g id="Group-5" transform="translate(58.000000, 0.000000)">
                <mask id="mask-2" fill="white">
                    <use xlink:href="#path-1"></use>
                </mask>
                <g id="Clip-4"></g>
                <polygon id="Fill-3" fill="#EC1C25" fill-rule="nonzero" mask="url(#mask-2)" points="47.2273714 0.116072727 13.3856571 36.1245273 34.9050857 36.1245273 34.9050857 23.0698 47.4382286 23.0698 47.4382286 36.1245273 53.6370857 36.1245273 53.6370857 46.0580727 47.3988 46.0580727 47.3988 55.7048909 34.9050857 55.7048909 34.9050857 46.0580727 0.387942857 46.0580727 0.387942857 33.9170727 31.1902286 0.116072727"></polygon>
            </g>
            <g id="Group-8" transform="translate(1.000000, 54.000000)">
                <mask id="mask-4" fill="white">
                    <use xlink:href="#path-3"></use>
                </mask>
                <g id="Clip-7"></g>
                <path d="M0.931833333,2.24955 L9.6535,2.24955 C9.6585,2.24955 9.6635,2.24505 9.6685,2.24505 L0.9335,2.24505 L0.931833333,2.24955 Z" id="Fill-6" fill="#DC2828" mask="url(#mask-4)"></path>
            </g>
            <g id="Group-11">
                <mask id="mask-6" fill="white">
                    <use xlink:href="#path-5"></use>
                </mask>
                <g id="Clip-10"></g>
                <path d="M54.0847132,30.8163225 C52.6174264,27.4632682 49.8929612,25.1156093 45.9391008,23.7733457 C43.6747907,22.9763225 40.2366512,22.5856248 35.6542016,22.5856248 L23.335938,22.5856248 C20.0506047,22.5856248 17.7046822,22.278276 16.2929612,21.6496868 C14.1831938,20.7137488 13.1343876,18.9113302 13.1343876,16.2406946 C13.1343876,13.0838574 14.3933023,11.182462 16.9076589,10.5556093 C18.1231628,10.2604155 20.6114729,10.0919814 24.3552248,10.0659349 L52.6643101,10.0659349 L52.6643101,0.116167442 L43.5775504,0.116167442 L21.6446512,0.116167442 C18.3471628,0.116167442 15.8588527,0.199516279 14.1970853,0.367950388 C9.26387597,0.885407752 5.67293023,2.7156093 3.43813953,5.8464 C1.14604651,9.08658605 0,12.6792682 0,16.6053457 C0,18.9807876 0.446263566,21.2433612 1.35615504,23.3687566 C2.33376744,25.6886326 3.74548837,27.6021829 5.56179845,29.0989891 C8.35572093,31.3893457 12.9138605,32.5353922 19.2414264,32.5353922 L32.9575194,32.5353922 C35.8191628,32.5353922 37.9167752,32.8844155 39.2312558,33.5980899 C41.5233488,34.8552682 42.6693953,36.8400124 42.6693953,39.5349581 C42.6693953,41.8843535 41.6900465,43.6450977 39.7209302,44.8171907 C38.3491473,45.6419969 35.6264186,46.046586 31.5180155,46.046586 L13.1777984,46.046586 L13.1743256,46.0500589 L2.92589147,46.0500589 L2.92762791,55.9963535 L11.8094884,55.9963535 L34.1018295,55.9963535 C38.3613023,55.9963535 41.5493953,55.8140279 43.6886822,55.4650047 C48.0766512,54.7252837 51.3724031,52.4470822 53.5533643,48.6338729 C55.1057364,45.9215628 55.8871318,42.8741209 55.8871318,39.4932837 C55.8871318,36.4059039 55.2863256,33.5147411 54.0847132,30.8163225" id="Fill-9" fill="#EC1C25" fill-rule="nonzero" mask="url(#mask-6)"></path>
            </g>
        </g>
    </g>
</svg>