<?xml version="1.0" encoding="UTF-8" standalone="no"?>
<!-- Created with Inkscape (http://www.inkscape.org/) -->

<svg
   xmlns:dc="http://purl.org/dc/elements/1.1/"
   xmlns:cc="http://creativecommons.org/ns#"
   xmlns:rdf="http://www.w3.org/1999/02/22-rdf-syntax-ns#"
   xmlns:svg="http://www.w3.org/2000/svg"
   xmlns="http://www.w3.org/2000/svg"
   xmlns:sodipodi="http://sodipodi.sourceforge.net/DTD/sodipodi-0.dtd"
   xmlns:inkscape="http://www.inkscape.org/namespaces/inkscape"
   width="151.49484mm"
   height="67.518974mm"
   viewBox="0 0 151.49484 67.518974"
   version="1.1"
   id="svg8"
   inkscape:version="0.92.4 5da689c313, 2019-01-14"
   sodipodi:docname="scenarios.svg">
  <defs
     id="defs2" />
  <sodipodi:namedview
     id="base"
     pagecolor="#ffffff"
     bordercolor="#666666"
     borderopacity="1.0"
     inkscape:pageopacity="0.0"
     inkscape:pageshadow="2"
     inkscape:zoom="0.35"
     inkscape:cx="-200.73155"
     inkscape:cy="-155.26223"
     inkscape:document-units="mm"
     inkscape:current-layer="layer1"
     showgrid="false"
     inkscape:window-width="1280"
     inkscape:window-height="965"
     inkscape:window-x="0"
     inkscape:window-y="0"
     inkscape:window-maximized="1"
     showborder="true"
     fit-margin-top="0"
     fit-margin-left="0"
     fit-margin-right="0"
     fit-margin-bottom="0" />
  <metadata
     id="metadata5">
    <rdf:RDF>
      <cc:Work
         rdf:about="">
        <dc:format>image/svg+xml</dc:format>
        <dc:type
           rdf:resource="http://purl.org/dc/dcmitype/StillImage" />
        <dc:title></dc:title>
      </cc:Work>
    </rdf:RDF>
  </metadata>
  <g
     inkscape:label="Layer 1"
     inkscape:groupmode="layer"
     id="layer1"
     transform="translate(-28.163795,-40.23456)">
    <g
       id="g138"
       transform="matrix(0.26458333,0,0,0.26458333,28.163795,49.395809)"
       style="fill:none;fill-rule:evenodd;stroke:none;stroke-width:1">
      <path
         id="path98"
         d="m 38.616904,173.98413 v -16.36257 c 0,-2.14869 1.344267,-3.87696 3.56954,-3.87696 h 0.61697 c 2.224737,0 3.562578,1.72934 3.562578,3.87696 v 34.44753 c 0,8.40033 -4.150628,15.08365 -11.381825,19.34192 -3.353171,1.97302 -7.058209,2.98524 -10.945339,2.98524 h -1.536535 c -8.401941,0 -15.0777574,-4.1533 -19.3424604,-11.38075 -1.9789121,-3.35532 -2.98416733,-7.055 -2.98416733,-10.94641 v -1.53547 c 0,-8.40301 4.15276983,-15.08257 11.37861073,-19.34835 3.355849,-1.98105 7.055531,-2.98524 10.948017,-2.98524 h 1.536535 c 5.686092,0 10.510461,2.20385 14.578076,5.7841 z M 7.923682,191.30002 c 0,6.06795 2.941322,10.62989 8.25841,13.53908 2.149757,1.17663 4.484285,1.8086 6.937172,1.8086 5.956016,0 10.373355,-2.80957 13.420719,-7.85674 1.417105,-2.34845 2.076921,-4.91648 2.076921,-7.64786 0,-5.26032 -2.490377,-9.36489 -6.728837,-12.41386 -2.570176,-1.84824 -5.463297,-2.7753 -8.61831,-2.7753 -6.491581,0 -11.163314,3.27926 -13.9675311,9.10567 -0.946343,1.96981 -1.3785439,4.06173 -1.3785439,6.24041 z m 65.324452,-23.09999 h 1.073807 c 8.97821,0 15.80559,4.35522 20.132954,12.19214 1.73041,3.13519 2.655866,6.55638 2.655866,10.14145 v 1.53547 c 0,8.3998 -4.142058,15.09329 -11.385037,19.34299 -3.353172,1.9666 -7.057138,2.98417 -10.943197,2.98417 h -1.534393 c -8.401942,0 -15.078829,-4.1533 -19.34246,-11.38075 -1.978913,-3.35532 -2.98631,-7.055 -2.98631,-10.94641 v -1.53547 c 0,-8.40408 4.168301,-15.06169 11.376469,-19.34621 3.351564,-1.99176 7.057673,-2.98738 10.952301,-2.98738 z m -14.580753,23.09999 c 0,5.89014 2.890979,10.22286 7.865841,13.26915 2.336134,1.43103 4.908452,2.07853 7.638226,2.07853 5.819983,0 10.12164,-2.95096 13.115983,-7.86316 1.427816,-2.34203 2.073707,-4.91435 2.073707,-7.64144 0,-5.47669 -2.638192,-9.66106 -7.147649,-12.69343 -2.471631,-1.66293 -5.222828,-2.49573 -8.198962,-2.49573 -6.491581,0 -11.163314,3.27926 -13.96646,9.10567 -0.948485,1.96981 -1.380686,4.06173 -1.380686,6.24041 z m 70.657069,-14.72697 c -1.16967,-0.54788 -3.36013,-0.72997 -4.6246,-0.77817 -6.47391,-0.24368 -11.15796,3.40191 -13.90594,9.11317 -0.94849,1.96981 -1.38176,4.0553 -1.38176,6.23505 0,6.63725 3.48439,11.28381 9.4088,14.11641 2.16422,1.03418 4.95826,1.23127 7.32332,1.23127 2.08067,0 5.01985,-1.27518 6.86594,-2.1519 l 0.32027,-0.15157 h 1.4321 l 0.15799,0.0321 c 1.76254,0.36632 3.09289,1.48351 3.09289,3.37995 v 0.76693 c 0,4.71725 -8.62206,5.79802 -11.91204,6.02724 -11.60997,0.80389 -20.29308,-5.57255 -23.60341,-16.64696 -0.5752,-1.92214 -0.83388,-3.8325 -0.83388,-5.83659 v -1.53332 c 0,-8.40301 4.16938,-15.05847 11.37647,-19.34032 3.35157,-1.99015 7.05768,-2.98952 10.95123,-2.98952 h 1.53547 c 4.12974,0 7.93385,1.17289 11.3438,3.50206 l 0.28063,0.19387 0.17674,0.29189 c 0.36793,0.61054 0.68499,1.31588 0.68499,2.04264 v 0.76693 c 0,1.97784 -1.47977,3.04147 -3.26641,3.38584 l -0.14782,0.0262 h -0.45791 c -1.15682,0 -3.78484,-1.19752 -4.81687,-1.68328 z m 25.13352,5.24693 c 3.00934,-3.01362 6.03046,-6.02189 9.08479,-8.98624 0.85155,-0.82638 4.07458,-4.32629 5.34333,-4.32629 h 1.38819 l 0.15799,0.0321 c 1.76736,0.3674 3.09181,1.48673 3.09181,3.38638 v 0.76639 c 0,1.29607 -1.51779,2.80154 -2.35488,3.68844 -1.78021,1.88679 -3.65469,3.71253 -5.47668,5.56077 l -9.36114,9.50306 c 4.03066,4.03976 8.05757,8.08381 12.05557,12.15464 1.10594,1.12576 2.21241,2.25312 3.30122,3.39548 0.38507,0.40489 0.9533,0.90886 1.27625,1.47067 0.34651,0.52538 0.55966,1.11825 0.55966,1.75129 v 0.80121 l -0.045,0.18423 c -0.43542,1.76737 -1.55743,3.19411 -3.51652,3.19411 h -0.61644 c -1.28214,0 -2.72977,-1.45084 -3.60863,-2.27883 -1.80861,-1.70631 -3.55669,-3.50045 -5.33048,-5.24318 l -5.94906,-5.8398 v 9.33383 c 0,2.14975 -1.34587,3.87749 -3.569,3.87749 h -0.61054 c -2.22528,0 -3.56901,-1.72774 -3.56901,-3.87749 v -52.59622 c 0,-2.15083 1.34481,-3.87053 3.56901,-3.87053 h 0.61054 c 2.22313,0 3.569,1.7197 3.569,3.87053 v 24.04793 z m 96.57734,-13.31253 h 0.76907 c 2.32436,0 3.87535,1.56599 3.87535,3.87642 0,3.20803 -3.06664,4.02905 -5.72037,4.02905 -3.4801,0 -6.80221,2.10691 -9.201,4.46982 -2.99167,2.94882 -4.30112,6.72616 -4.30112,10.87786 v 18.75923 c 0,2.15083 -1.34213,3.87642 -3.57008,3.87642 h -0.61108 c -2.22688,0 -3.569,-1.72559 -3.569,-3.87642 v -19.83571 c 0,-7.61734 3.70825,-13.83471 9.8892,-18.19582 3.69219,-2.60552 7.9194,-3.98085 12.43903,-3.98085 z m -55.07481,37.1757 c 2.81975,0.98436 6.03528,0.84405 8.9284,0.34008 1.47923,-0.62875 5.26407,-2.27936 6.656,-2.03782 l 0.21744,0.0364 0.19977,0.0986 c 0.84941,0.41185 1.66132,0.99454 2.09459,1.85894 1.01436,2.02819 0.527,4.06548 -1.46477,5.2164 l -0.66303,0.38293 c -7.35062,4.24275 -15.16826,3.6547 -22.49479,-0.30795 -3.50313,-1.89322 -6.1831,-4.70493 -8.15987,-8.13148 l -0.46272,-0.8012 c -4.71833,-8.17165 -4.08155,-16.768 1.23983,-24.53905 1.83752,-2.68586 4.23846,-4.76117 7.04589,-6.38393 l 1.06202,-0.61269 c 6.92218,-3.99585 14.34082,-3.72271 21.45045,-0.21529 3.82232,1.88572 6.91949,4.69743 9.05372,8.3939 l 0.38346,0.66571 c 1.55047,2.68586 -0.4579,5.02681 -2.53107,6.62654 -2.40576,1.85627 -4.83508,4.08958 -7.14123,6.08027 -5.14142,4.43823 -10.27534,8.88717 -15.41409,13.32968 z m -6.65493,-4.67388 c 5.7509,-4.93094 11.50286,-9.8651 17.23716,-14.81586 1.95963,-1.69025 4.10885,-3.44422 6.05349,-5.22176 -1.56064,-1.96552 -4.16616,-3.38263 -6.38072,-4.22775 -4.46876,-1.7031 -8.87645,-1.13111 -12.97513,1.23501 -5.36583,3.09771 -7.65055,8.03133 -7.44971,14.17051 0.0787,2.41754 0.72944,4.74725 2.01265,6.80435 0.45202,0.72516 0.95706,1.40586 1.50226,2.0555 z"
         inkscape:connector-curvature="0"
         style="fill:#364548" />
      <path
         id="path100"
         d="m 147.4876,45.732418 h 22.86594 v 23.374728 h 11.56177 c 5.33905,0 10.83073,-0.951163 15.887,-2.664435 2.48448,-0.842443 5.27317,-2.014795 7.72392,-3.489205 -3.22785,-4.21436 -4.87579,-9.535732 -5.36101,-14.781054 -0.65874,-7.13426 0.78032,-16.420419 5.60897,-22.004218 l 2.40362,-2.780117 2.8642,2.302393 c 7.21138,5.793741 13.27612,13.889339 14.3451,23.118193 8.68312,-2.554109 18.87759,-1.949992 26.53135,2.467347 l 3.14002,1.811816 -1.65276,3.225707 c -6.47283,12.632904 -20.00495,16.546276 -33.23501,15.853791 -19.79715,49.308386 -62.89781,72.652586 -115.15715,72.652586 -26.998899,0 -51.769845,-10.09272 -65.875552,-34.04693 l -0.231364,-0.39096 -2.054962,-4.18116 C 32.083548,95.656703 30.499883,84.10564 31.574226,72.564218 l 0.32241,-3.457072 H 51.449573 V 45.732418 H 74.314979 V 22.865941 H 120.04793 V 0 h 27.43967 v 45.732418"
         inkscape:connector-curvature="0"
         style="fill:#364548" />
      <path
         id="path102"
         d="m 221.57014,54.379649 c 1.53332,-11.915247 -7.38383,-21.274779 -12.91407,-25.71836 -6.37269,7.367765 -7.36295,26.677556 2.63498,34.807431 -5.57952,4.956117 -17.33731,9.448435 -29.37574,9.448435 h -146.545 c -1.170745,12.567029 1.035782,24.139514 6.074376,34.045325 l 1.667214,3.04897 c 1.055598,1.79146 2.208669,3.52027 3.454928,5.1848 h 5.36e-4 c 6.024569,0.38668 11.579448,0.52057 16.661423,0.4081 h 0.0021 c 9.987213,-0.22119 18.135832,-1.39943 24.311966,-3.53955 0.919565,-0.31973 1.921607,0.16817 2.239733,1.08666 0.31759,0.9185 -0.168703,1.92108 -1.087197,2.23974 -0.821021,0.28438 -1.677389,0.55056 -2.561607,0.80334 -0.0011,5.4e-4 -0.0021,5.4e-4 -0.0032,10e-4 -4.862929,1.38818 -10.077188,2.32274 -16.80549,2.7378 0.398996,0.006 -0.416134,0.06 -0.418276,0.0605 -0.228686,0.0139 -0.51682,0.0466 -0.746577,0.0594 -2.647833,0.14835 -5.506143,0.17941 -8.428184,0.17941 -3.195716,0 -6.34323,-0.0605 -9.861891,-0.23886 l -0.08998,0.0594 c 12.210343,13.72385 31.302159,21.95494 55.233346,21.95494 50.64836,0 93.6087,-22.45194 112.63196,-72.857702 13.49677,1.38497 26.46762,-2.056569 32.36794,-13.574427 -9.39863,-5.423665 -21.48419,-3.694326 -28.44332,-0.196552"
         inkscape:connector-curvature="0"
         style="fill:#22a0c8" />
      <path
         id="path104"
         d="m 221.57014,54.379649 c 1.53332,-11.915247 -7.38383,-21.274779 -12.91407,-25.71836 -6.37269,7.367765 -7.36295,26.677556 2.63498,34.807431 -5.57952,4.956117 -17.33731,9.448435 -29.37574,9.448435 H 44.048067 c -0.598226,19.246058 6.544067,33.855195 19.18072,42.687195 h 0.0021 c 9.987213,-0.22119 18.135832,-1.39943 24.311966,-3.53955 0.919565,-0.31973 1.921607,0.16817 2.239733,1.08666 0.31759,0.9185 -0.168703,1.92108 -1.087197,2.23974 -0.821021,0.28438 -1.677389,0.55056 -2.561607,0.80334 -0.0011,5.4e-4 -0.0021,5.4e-4 -0.0032,10e-4 -4.862929,1.38818 -10.525456,2.44271 -17.253757,2.85777 -0.0016,0 -0.162812,-0.15585 -0.164954,-0.15531 17.236619,8.84164 42.230359,8.81004 70.885219,-2.19743 32.13068,-12.34316 62.02859,-35.859813 82.89044,-62.756951 -0.31491,0.141924 -0.62125,0.287598 -0.91742,0.43595"
         inkscape:connector-curvature="0"
         style="fill:#37b1d9" />
      <path
         id="path106"
         d="m 35.644519,88.186109 c 0.910996,6.731514 2.879732,13.034581 5.800167,18.776371 l 1.667214,3.04897 c 1.055598,1.79146 2.208669,3.52027 3.455464,5.1848 6.02564,0.38668 11.581054,0.52057 16.663565,0.4081 9.987213,-0.22119 18.135832,-1.39943 24.311966,-3.53955 0.919565,-0.31973 1.921607,0.16817 2.239733,1.08666 0.31759,0.9185 -0.168703,1.92108 -1.087197,2.23974 -0.821021,0.28438 -1.677389,0.55056 -2.561607,0.80334 -0.0011,5.4e-4 -0.0021,5.4e-4 -0.0032,10e-4 -4.862929,1.38818 -10.495465,2.38272 -17.223766,2.79832 -0.230828,0.0139 -0.633573,0.0166 -0.866544,0.0295 -2.646761,0.14889 -5.475615,0.23939 -8.398192,0.23939 -3.19518,0 -6.462661,-0.061 -9.980787,-0.23939 12.209808,13.72385 31.421055,21.98493 55.352235,21.98493 43.35986,0 81.08398,-16.4579 102.97894,-52.822221 H 35.644519"
         inkscape:connector-curvature="0"
         style="fill:#1b81a5" />
      <path
         id="path108"
         d="m 45.367163,88.186109 c 2.592134,11.819381 8.821289,21.098581 17.863766,27.418241 9.987213,-0.22119 18.135832,-1.39943 24.311966,-3.53955 0.919565,-0.31973 1.921607,0.16817 2.239733,1.08666 0.31759,0.9185 -0.168703,1.92108 -1.087197,2.23974 -0.821021,0.28438 -1.677389,0.55056 -2.561607,0.80334 -0.0011,5.4e-4 -0.0021,5.4e-4 -0.0032,10e-4 -4.862929,1.38818 -10.614896,2.38272 -17.343197,2.79832 17.235548,8.84003 42.156983,8.71311 70.809703,-2.29329 17.33409,-6.65975 34.01694,-16.57412 48.98437,-28.514541 H 45.367163"
         inkscape:connector-curvature="0"
         style="fill:#1d91b4" />
      <path
         id="path110"
         d="m 55.260653,49.542962 h 19.81697 v 19.818042 h -19.81697 z m 1.650611,1.651682 h 1.563849 v 16.515749 h -1.563849 z m 2.940251,0 h 1.62651 v 16.515749 h -1.62651 z m 3.001841,0 h 1.62651 v 16.515749 h -1.62651 z m 3.003447,0 h 1.626511 v 16.515749 h -1.626511 z m 3.002912,0 h 1.626511 v 16.515749 h -1.626511 z m 3.002377,0 h 1.564921 v 16.515749 h -1.564921 z"
         inkscape:connector-curvature="0"
         style="fill:#23a3c2" />
      <path
         id="path112"
         d="M 78.125523,26.677021 H 97.944636 V 46.493992 H 78.125523 Z m 1.652753,1.651682 h 1.562778 v 16.514142 h -1.562778 z m 2.940251,0 h 1.625439 v 16.514142 h -1.625439 z m 3.001306,0 h 1.62651 v 16.514142 h -1.62651 z m 3.002912,0 h 1.62651 v 16.514142 h -1.62651 z m 3.003447,0 h 1.626511 v 16.514142 h -1.626511 z m 3.001841,0 h 1.565992 v 16.514142 h -1.565992 z"
         inkscape:connector-curvature="0"
         style="fill:#23a3c2" />
      <path
         id="path114"
         d="M 78.125523,49.542962 H 97.944636 V 69.361004 H 78.125523 Z m 1.652753,1.651682 h 1.562778 v 16.515749 h -1.562778 z m 2.940251,0 h 1.625439 v 16.515749 h -1.625439 z m 3.001306,0 h 1.62651 v 16.515749 h -1.62651 z m 3.002912,0 h 1.62651 v 16.515749 h -1.62651 z m 3.003447,0 h 1.626511 v 16.515749 h -1.626511 z m 3.001841,0 h 1.565992 v 16.515749 h -1.565992 z"
         inkscape:connector-curvature="0"
         style="fill:#34bbde" />
      <path
         id="path116"
         d="m 100.99254,49.542962 h 19.81804 v 19.818042 h -19.81804 z m 1.65168,1.651682 h 1.56278 v 16.515749 h -1.56278 z m 2.93971,0 h 1.62651 v 16.515749 h -1.62651 z m 3.00291,0 h 1.62652 v 16.515749 h -1.62652 z m 3.00292,0 h 1.62651 v 16.515749 h -1.62651 z m 3.00237,0 h 1.62758 v 16.515749 h -1.62758 z m 3.00292,0 h 1.56385 v 16.515749 h -1.56385 z"
         inkscape:connector-curvature="0"
         style="fill:#23a3c2" />
      <path
         id="path118"
         d="m 100.99254,26.677021 h 19.81804 v 19.816971 h -19.81804 z m 1.65168,1.651682 h 1.56278 v 16.514142 h -1.56278 z m 2.93971,0 h 1.62651 v 16.514142 h -1.62651 z m 3.00291,0 h 1.62652 v 16.514142 h -1.62652 z m 3.00292,0 h 1.62651 v 16.514142 h -1.62651 z m 3.00237,0 h 1.62758 v 16.514142 h -1.62758 z m 3.00292,0 h 1.56385 v 16.514142 h -1.56385 z"
         inkscape:connector-curvature="0"
         style="fill:#34bbde" />
      <path
         id="path120"
         d="m 123.85901,49.542962 h 19.81751 v 19.818042 h -19.81751 z m 1.65168,1.651682 h 1.56332 v 16.515749 h -1.56332 z m 2.94026,0 h 1.62651 v 16.515749 h -1.62651 z m 3.00184,0 h 1.62651 v 16.515749 h -1.62651 z m 3.00344,0 h 1.62651 v 16.515749 h -1.62651 z m 3.00292,0 h 1.62651 v 16.515749 h -1.62651 z m 3.00237,0 h 1.56439 v 16.515749 h -1.56439 z"
         inkscape:connector-curvature="0"
         style="fill:#34bbde" />
      <path
         id="path122"
         d="m 123.85901,26.677021 h 19.81751 v 19.816971 h -19.81751 z m 1.65168,1.651682 h 1.56332 v 16.514142 h -1.56332 z m 2.94026,0 h 1.62651 v 16.514142 h -1.62651 z m 3.00184,0 h 1.62651 v 16.514142 h -1.62651 z m 3.00344,0 h 1.62651 v 16.514142 h -1.62651 z m 3.00292,0 h 1.62651 v 16.514142 h -1.62651 z m 3.00237,0 h 1.56439 v 16.514142 h -1.56439 z"
         inkscape:connector-curvature="0"
         style="fill:#23a3c2" />
      <path
         id="path124"
         d="m 123.85901,3.8105439 h 19.81751 V 23.628586 h -19.81751 z m 1.65168,1.6506109 h 1.56332 V 21.976904 h -1.56332 z m 2.94026,0 h 1.62651 V 21.976904 h -1.62651 z m 3.00184,0 h 1.62651 V 21.976904 h -1.62651 z m 3.00344,0 h 1.62651 V 21.976904 h -1.62651 z m 3.00292,0 h 1.62651 V 21.976904 h -1.62651 z m 3.00237,0 h 1.56439 V 21.976904 h -1.56439 z"
         inkscape:connector-curvature="0"
         style="fill:#34bbde" />
      <path
         id="path126"
         d="M 146.72495,49.542962 H 166.543 v 19.818042 h -19.81805 z m 1.65061,1.651682 h 1.56492 v 16.515749 h -1.56492 z m 2.94026,0 h 1.62651 v 16.515749 h -1.62651 z m 3.00344,0 h 1.62651 v 16.515749 h -1.62651 z m 3.00184,0 h 1.62652 v 16.515749 h -1.62652 z m 3.00399,0 h 1.62597 v 16.515749 h -1.62597 z m 3.00237,0 h 1.56385 v 16.515749 h -1.56385 z"
         inkscape:connector-curvature="0"
         style="fill:#23a3c2" />
      <path
         id="path128"
         d="m 96.703732,101.49168 c 3.018979,0 5.466508,2.44861 5.466508,5.46758 0,3.01898 -2.447529,5.46651 -5.466508,5.46651 -3.019514,0 -5.467581,-2.44753 -5.467581,-5.46651 0,-3.01897 2.448067,-5.46758 5.467581,-5.46758"
         inkscape:connector-curvature="0"
         style="fill:#d3ecec" />
      <path
         id="path130"
         d="m 96.703732,103.04268 c 0.500218,0 0.977406,0.0943 1.41764,0.2651 -0.477188,0.27582 -0.800133,0.79264 -0.800133,1.3839 0,0.88261 0.715514,1.59706 1.598125,1.59706 0.604653,0 1.130046,-0.3358 1.401576,-0.83174 0.19173,0.4622 0.29831,0.96991 0.29831,1.50226 0,2.16208 -1.752907,3.91498 -3.915518,3.91498 -2.162075,0 -3.91605,-1.7529 -3.91605,-3.91498 0,-2.16314 1.753975,-3.91658 3.91605,-3.91658"
         inkscape:connector-curvature="0"
         style="fill:#364548" />
      <path
         id="path132"
         d="m 0,90.162343 h 254.32743 c -5.53774,-1.404786 -17.521,-3.302293 -15.54477,-10.559732 -10.06915,11.651749 -34.35274,8.174326 -40.4812,2.428786 -6.82471,9.89831 -46.55451,6.135967 -49.32553,-1.575096 -8.55565,10.04077 -35.06718,10.04077 -43.62336,0 -2.77209,7.711063 -42.501357,11.473406 -49.326595,1.575096 C 49.897506,87.776937 25.616067,91.25436 15.545841,79.602611 17.522075,86.86005 5.5388117,88.757557 0,90.162343"
         inkscape:connector-curvature="0"
         style="fill:#364548" />
      <path
         id="path134"
         d="M 111.23736,140.88997 C 97.697741,134.4648 90.265707,125.73081 86.130611,116.19562 c -5.028954,1.43584 -11.074946,2.35327 -18.099414,2.74744 -2.646226,0.14835 -5.429557,0.2244 -8.351063,0.2244 -3.367632,0 -6.916285,-0.0996 -10.641674,-0.29723 12.416536,12.40903 27.691917,21.96351 55.9751,22.1381 2.08816,0 4.16134,-0.0407 6.2238,-0.11836"
         inkscape:connector-curvature="0"
         style="fill:#bdd9d7" />
      <path
         id="path136"
         d="m 91.1601,124.99387 c -1.873405,-2.54286 -3.690577,-5.73857 -5.026276,-8.79933 -5.030025,1.43639 -11.077088,2.35435 -18.102627,2.74852 4.825439,2.61945 11.727263,5.04663 23.128903,6.05081"
         inkscape:connector-curvature="0"
         style="fill:#d3ecec" />
    </g>
    <g
       id="g256"
       transform="matrix(0.26458333,0,0,0.26458333,112.13897,40.23456)">
      <path
         id="path252"
         d="m 169.1402,255.18983 c 0,0 6.04006,-29.17443 31.29141,-64.19308 17.55129,-10.14033 35.15231,-22.56549 50.06127,-37.47134 13.78364,-68.352416 -7.14051,-141.687952 -7.14051,-141.687952 0,0 -73.33554,-20.9210363 -141.68484,-7.1373998 C 86.755464,19.615234 74.336513,37.21626 64.196183,54.761331 29.168214,80.006462 0,86.046517 0,86.046517 c 0,0 23.330219,16.018733 34.586545,34.194863 -4.793498,13.82715 -7.04725,22.73647 -7.04725,22.73647 1.824762,8.53317 7.224441,18.48698 14.675812,28.53094 -5.144772,4.07852 -11.175502,8.32179 -17.72848,11.86873 -0.783373,0.4321 -1.585398,0.84554 -2.384314,1.24966 5.6235,18.54916 30.461401,41.91047 48.55359,48.20543 0.366817,-0.72431 0.749178,-1.43929 1.137756,-2.15117 3.649524,-6.73017 8.029574,-12.91322 12.207564,-18.15125 10.137222,7.355 20.044407,12.8355 28.207647,15.11102 0,0 8.91864,-2.25065 22.74269,-7.04414 18.16991,11.25943 34.18864,34.59276 34.18864,34.59276 z M 117.58679,193.40905 C 107.18223,188.90154 93.364397,177.80376 83.945268,168.37841 71.209238,155.64238 64.308094,144.79328 61.659546,138.04135 c 4.47331,-15.24779 21.65778,-67.920311 54.662034,-103.330641 39.80282,-6.758147 81.49878,0.506706 99.64693,4.507504 3.99769,18.141927 11.27186,59.847219 4.5075,99.646927 -35.19273,32.83017 -87.10363,49.90273 -102.88922,54.54391 z"
         inkscape:connector-curvature="0"
         style="fill:#54a3da" />
      <circle
         id="circle254"
         r="27.25952"
         cy="103.05087"
         cx="152.47487"
         style="fill:#f1616e" />
    </g>
  </g>
</svg>
